<?xml version="1.0" standalone="no"?>
<!DOCTYPE svg PUBLIC "-//W3C//DTD SVG 20010904//EN"
 "http://www.w3.org/TR/2001/REC-SVG-20010904/DTD/svg10.dtd">
<svg version="1.0" xmlns="http://www.w3.org/2000/svg"
 width="948.000000pt" height="948.000000pt" viewBox="0 0 948.000000 948.000000"
 preserveAspectRatio="xMidYMid meet">
<metadata>
Created by potrace 1.11, written by Peter Selinger 2001-2013
</metadata>
<g transform="translate(0.000000,948.000000) scale(0.100000,-0.100000)"
fill="#000000" stroke="none">
<path d="M3350 9389 c-14 -6 -34 -12 -45 -14 -28 -5 -178 -58 -300 -106 -16
-7 -32 -13 -35 -14 -16 -5 -54 -22 -130 -55 -166 -74 -225 -102 -231 -112 -3
-5 -16 -10 -27 -11 -12 -1 -22 -5 -22 -9 0 -4 -4 -8 -9 -8 -28 0 -456 -259
-501 -303 -58 -57 -44 -154 28 -195 53 -29 90 -21 190 45 124 81 211 133 221
133 5 0 11 3 13 8 2 4 33 22 69 41 74 38 113 37 124 -2 7 -23 47 -107 179
-380 89 -184 99 -216 67 -224 -11 -3 -21 -9 -21 -13 0 -4 -11 -11 -25 -14 -14
-4 -25 -11 -25 -16 0 -6 -5 -10 -11 -10 -23 0 -270 -161 -386 -252 -35 -26
-63 -46 -63 -44 0 3 -11 -5 -24 -17 -13 -12 -30 -27 -38 -32 -120 -94 -373
-339 -394 -383 -43 -92 44 -197 142 -170 20 5 75 52 155 131 68 67 146 140
174 162 27 22 65 55 84 73 20 17 44 35 54 38 9 3 17 9 17 14 0 5 15 17 33 29
17 11 41 28 52 39 12 10 25 21 30 23 6 2 56 34 112 72 56 37 107 67 113 67 5
0 10 4 10 8 0 5 19 17 41 28 23 10 47 23 53 29 10 9 183 98 196 100 3 1 32 14
65 29 33 16 76 35 95 43 19 8 43 18 52 23 10 6 23 10 29 10 6 0 25 6 42 14 43
19 120 46 143 50 11 3 31 9 47 15 15 6 38 13 50 15 12 3 45 12 72 20 57 18
315 72 390 82 28 3 57 8 65 9 9 2 43 6 75 10 33 3 80 8 104 11 53 6 79 19 105
51 45 54 35 136 -22 178 -21 16 -41 20 -92 19 -61 -1 -151 -9 -210 -18 -14 -2
-45 -7 -69 -10 -24 -3 -87 -15 -140 -26 -53 -10 -111 -22 -130 -25 -19 -3 -38
-8 -43 -11 -5 -3 -21 -7 -36 -9 -61 -8 -366 -107 -492 -159 -41 -17 -81 -31
-89 -31 -12 0 -74 89 -69 98 1 2 -30 67 -159 337 -81 169 -83 173 -72 192 7
13 136 74 174 83 5 1 24 7 40 14 72 29 166 63 178 65 32 5 134 41 155 54 50
32 69 126 34 168 -40 48 -108 66 -162 43z"/>
<path d="M6021 9352 c-36 -34 -40 -42 -37 -83 2 -46 28 -93 56 -103 34 -14 77
-28 105 -36 17 -4 62 -20 100 -35 39 -14 75 -28 80 -29 61 -17 228 -92 235
-106 8 -15 5 -23 -160 -365 -124 -259 -122 -255 -141 -255 -9 0 -71 21 -136
46 -65 26 -124 47 -130 47 -7 0 -13 3 -13 7 0 4 -6 7 -12 8 -7 0 -67 17 -133
37 -66 20 -128 39 -138 41 -10 2 -26 5 -35 8 -9 3 -28 7 -42 10 -14 3 -36 8
-50 11 -14 3 -36 8 -50 11 -14 2 -50 9 -80 16 -30 6 -66 12 -80 14 -14 2 -56
8 -95 14 -38 6 -111 13 -162 16 -76 5 -96 3 -120 -11 -53 -31 -73 -88 -53
-150 20 -61 52 -75 210 -91 80 -8 108 -11 140 -18 14 -2 46 -7 72 -11 26 -3
53 -8 60 -10 7 -2 24 -6 38 -9 72 -13 183 -39 245 -58 39 -11 75 -21 80 -22
27 -6 147 -47 203 -69 34 -14 62 -23 62 -21 0 3 12 -1 28 -9 15 -8 38 -19 52
-25 14 -5 65 -28 113 -51 48 -22 92 -41 98 -41 5 0 9 -5 9 -12 0 -6 3 -9 6 -5
7 6 137 -62 142 -75 2 -4 9 -8 14 -8 6 0 45 -21 87 -47 42 -27 83 -52 92 -58
192 -118 500 -379 624 -528 47 -57 81 -77 130 -77 95 0 152 120 95 200 -71 99
-554 522 -574 503 -3 -4 -6 -1 -6 4 0 6 -20 24 -45 40 -25 15 -45 31 -45 36 0
4 -5 7 -11 7 -5 0 -37 18 -69 40 -32 22 -64 40 -69 40 -6 0 -11 3 -11 8 0 4
-10 12 -23 18 -52 25 -123 68 -140 83 -16 16 -15 21 28 109 24 51 41 92 37 92
-4 0 -2 4 3 8 6 4 33 54 60 112 116 246 149 305 170 305 32 1 201 -95 382
-217 56 -38 110 -71 120 -73 10 -2 23 -4 28 -6 17 -5 75 12 75 22 0 6 5 7 10
4 6 -3 19 15 30 40 17 39 18 54 10 84 -6 20 -16 43 -23 52 -14 18 -230 162
-269 180 -16 7 -28 16 -28 21 0 4 -5 8 -10 8 -6 0 -38 17 -73 38 -34 20 -81
46 -104 57 -24 11 -43 23 -43 28 0 4 -4 7 -10 7 -5 0 -70 29 -142 64 -73 34
-167 77 -208 94 -100 42 -256 102 -263 102 -3 0 -18 5 -34 12 -15 6 -32 12
-38 14 -5 1 -32 9 -60 18 -83 26 -118 22 -164 -22z"/>
<path d="M4627 7594 c-1 -1 -40 -5 -87 -8 -94 -8 -135 -12 -195 -21 -22 -3
-56 -8 -75 -11 -19 -2 -73 -13 -120 -24 -47 -11 -94 -22 -105 -24 -75 -15
-293 -89 -405 -138 -103 -46 -254 -125 -327 -171 -24 -15 -44 -27 -47 -27 -7
0 -106 -68 -122 -84 -8 -9 -19 -16 -23 -16 -7 0 -34 -20 -70 -52 -8 -7 -22
-17 -31 -23 -56 -33 -308 -275 -385 -370 -22 -27 -48 -57 -57 -67 -10 -10 -18
-20 -18 -23 0 -3 -8 -15 -19 -26 -10 -11 -40 -52 -67 -92 -27 -40 -55 -78 -62
-85 -6 -7 -12 -20 -12 -28 0 -8 -4 -14 -8 -14 -5 0 -16 -15 -25 -32 -10 -18
-31 -55 -47 -83 -16 -27 -42 -75 -56 -105 -15 -30 -40 -82 -55 -114 -16 -33
-29 -65 -29 -73 0 -7 -5 -13 -11 -13 -5 0 -8 -4 -5 -8 3 -5 -1 -20 -8 -33 -17
-33 -68 -178 -71 -204 -2 -11 -9 -33 -16 -50 -14 -35 -15 -40 -17 -78 -1 -19
-6 -26 -14 -21 -7 4 -8 3 -4 -4 4 -6 2 -29 -3 -49 -6 -21 -12 -49 -15 -63 -3
-14 -7 -34 -9 -45 -3 -11 -8 -49 -12 -85 -4 -36 -9 -74 -11 -85 -17 -84 -23
-461 -10 -575 3 -30 8 -81 10 -112 2 -31 6 -61 9 -65 3 -4 8 -28 11 -53 3 -25
8 -56 11 -70 13 -58 24 -108 35 -145 6 -22 13 -49 16 -60 34 -130 63 -213 120
-340 9 -22 16 -40 14 -40 -5 0 142 -281 163 -309 4 -6 30 -47 58 -91 28 -44
55 -81 60 -83 5 -2 9 -8 9 -13 0 -9 78 -114 130 -173 101 -117 269 -284 353
-349 15 -12 40 -32 55 -45 15 -12 45 -35 67 -50 22 -15 42 -30 45 -33 12 -13
99 -69 108 -69 6 0 12 -3 14 -8 9 -20 370 -212 400 -212 8 0 18 -4 24 -9 5 -5
38 -19 74 -32 36 -12 71 -27 78 -32 6 -5 12 -7 12 -4 0 3 24 -3 53 -13 28 -10
99 -31 157 -45 l105 -28 580 0 580 0 104 27 c130 34 267 79 356 116 151 64
271 123 342 168 29 17 55 32 59 32 14 0 285 195 340 245 6 5 35 30 64 54 58
49 210 204 262 266 18 21 41 47 51 57 9 10 14 18 10 18 -4 0 3 9 15 20 11 11
35 41 53 67 18 27 35 50 38 53 41 36 267 442 296 531 4 13 8 26 9 29 7 15 28
68 35 90 5 14 13 34 17 45 9 24 8 20 23 75 7 25 16 49 19 55 3 5 7 18 8 30 1
11 12 56 23 101 24 90 28 109 36 169 3 22 8 47 10 55 4 15 16 124 19 167 1 12
5 25 8 28 3 4 2 20 -2 36 -5 16 -5 29 -2 29 9 0 7 311 -1 395 -4 33 -9 86 -13
119 -5 50 -53 298 -70 361 -3 11 -6 25 -7 30 -2 6 -6 15 -10 22 -4 6 -8 23 -9
37 -1 14 -5 26 -8 26 -3 0 -7 10 -7 22 -1 13 -6 32 -12 43 -5 11 -19 47 -31
80 -12 33 -28 72 -36 88 -9 15 -13 27 -10 27 8 0 -121 255 -166 328 -21 34
-38 67 -38 72 0 6 -4 10 -8 10 -5 0 -15 12 -23 28 -8 15 -17 32 -22 37 -4 6
-36 49 -71 97 -136 182 -317 372 -476 498 -18 14 -42 33 -53 42 -12 10 -26 21
-32 26 -5 4 -32 23 -60 42 -27 19 -52 37 -55 41 -3 3 -23 16 -45 28 -22 13
-56 34 -75 47 -42 27 -133 78 -175 98 -99 46 -186 85 -225 101 -25 9 -54 21
-65 26 -27 10 -144 50 -159 54 -6 1 -18 5 -26 8 -22 8 -168 44 -215 53 -22 4
-47 9 -55 11 -18 4 -45 8 -120 17 -30 4 -62 9 -70 11 -35 10 -434 27 -443 19z
m1353 -2030 c0 -8 -19 -13 -24 -6 -3 5 1 9 9 9 8 0 15 -2 15 -3z"/>
<path d="M1647 7007 c-22 -12 -56 -54 -98 -120 -35 -55 -66 -105 -68 -111 -2
-6 -7 -13 -10 -16 -14 -11 -202 -380 -194 -380 3 0 -1 -7 -8 -16 -7 -9 -14
-22 -15 -29 -1 -7 -14 -41 -29 -76 -43 -102 -56 -136 -61 -160 -2 -9 -9 -29
-15 -45 -7 -16 -13 -33 -14 -39 -16 -68 -59 -184 -70 -189 -16 -6 -31 -3 -118
19 -34 9 -73 19 -87 21 -14 3 -61 14 -105 25 -44 11 -89 22 -100 24 -11 2 -60
13 -110 24 -49 12 -102 24 -117 27 -26 6 -34 21 -28 49 1 6 9 35 17 65 8 30
16 60 17 65 1 6 4 15 8 20 3 6 9 26 13 45 4 19 11 41 15 50 24 47 100 280 100
305 0 103 -139 160 -210 86 -15 -15 -54 -99 -80 -171 -7 -19 -19 -49 -26 -67
-8 -17 -14 -37 -14 -45 0 -8 -5 -19 -12 -26 -7 -7 -9 -12 -5 -12 4 0 1 -15 -7
-33 -12 -31 -64 -201 -71 -237 -2 -8 -13 -53 -25 -100 -12 -47 -24 -94 -26
-105 -7 -36 -35 -180 -39 -200 -4 -23 -13 -79 -20 -132 -3 -21 -7 -51 -10 -68
-12 -85 -20 -177 -20 -240 0 -55 5 -75 20 -93 59 -70 169 -60 205 18 16 33 21
70 35 240 2 19 6 53 10 75 3 22 8 49 9 60 14 91 18 115 27 148 14 52 1 52 298
-18 58 -13 108 -22 113 -19 4 3 8 1 8 -4 0 -5 6 -9 13 -9 6 0 24 -3 40 -7 15
-3 39 -8 55 -11 162 -30 166 -33 158 -108 -4 -33 -9 -63 -11 -66 -2 -4 -6 -38
-10 -76 -4 -39 -9 -86 -11 -105 -13 -121 -18 -228 -17 -400 0 -167 7 -365 13
-365 1 0 3 -16 5 -35 6 -83 17 -147 31 -181 16 -36 73 -77 92 -65 6 4 13 2 17
-4 4 -6 12 -7 18 -3 7 4 15 8 20 8 4 0 23 12 42 28 43 34 50 70 36 179 -17
131 -24 250 -24 423 0 149 9 357 17 401 2 11 7 47 11 79 8 64 8 66 21 135 4
25 9 53 10 63 1 9 2 18 4 20 2 2 8 30 14 67 10 54 36 166 45 190 5 14 19 59
31 100 12 41 24 82 27 90 4 8 7 17 7 20 4 16 81 216 85 220 3 3 7 11 9 18 1 7
13 36 27 64 14 28 25 56 25 62 0 5 7 17 16 27 8 9 16 23 18 31 1 7 21 47 44
89 23 42 42 82 42 88 0 6 5 11 10 11 6 0 10 5 10 11 0 6 29 55 65 109 36 54
65 103 65 109 0 6 4 11 9 11 15 0 23 74 11 105 -27 72 -107 100 -173 62z"/>
<path d="M7752 7009 c-50 -10 -84 -51 -89 -107 -5 -48 8 -73 135 -268 6 -10
18 -30 24 -44 7 -14 15 -27 18 -30 3 -3 19 -32 35 -65 17 -33 37 -71 46 -85 9
-14 17 -28 18 -33 1 -8 19 -51 51 -122 50 -110 59 -135 103 -265 70 -206 126
-433 153 -615 2 -16 7 -52 10 -80 3 -27 8 -61 10 -75 8 -56 17 -244 17 -390 1
-141 -10 -356 -18 -370 -3 -6 -18 -133 -18 -166 -2 -63 54 -119 119 -118 75 0
119 50 130 147 2 23 6 56 9 72 19 142 26 617 11 770 -14 148 -23 221 -32 269
-4 17 -7 49 -8 71 -1 44 16 58 84 69 19 3 73 15 120 27 47 11 94 22 105 24 18
3 98 21 135 30 55 14 198 42 212 42 23 0 36 -42 53 -170 19 -142 25 -194 40
-357 1 -14 3 -32 3 -41 3 -26 58 -76 91 -84 48 -10 87 3 122 42 l31 36 -6 106
c-5 100 -8 131 -21 256 -5 48 -19 145 -30 203 -3 15 -7 41 -10 57 -3 17 -8 37
-10 45 -2 8 -7 31 -10 50 -8 47 -55 241 -63 260 -3 8 -6 20 -7 25 0 6 -4 16
-8 23 -5 6 -6 12 -3 12 7 0 -122 376 -143 418 -10 21 -27 45 -37 54 -25 22
-98 30 -130 13 -32 -16 -65 -51 -57 -59 4 -3 2 -6 -3 -6 -24 0 -11 -77 35
-207 27 -76 59 -172 71 -213 12 -41 28 -93 35 -114 15 -48 10 -72 -18 -80 -80
-23 -230 -56 -264 -58 -7 -1 -13 -4 -13 -8 0 -3 -8 -6 -17 -6 -10 -1 -30 -4
-45 -8 -16 -3 -39 -8 -53 -11 -13 -3 -72 -16 -129 -30 -58 -14 -112 -22 -120
-19 -9 3 -26 43 -41 92 -25 85 -35 116 -51 157 -4 11 -8 27 -10 35 -3 13 -42
112 -97 244 -50 121 -174 354 -271 508 -85 136 -121 163 -194 147z"/>
<path d="M1194 3869 c-3 -5 -9 -7 -13 -5 -16 10 -64 -53 -71 -92 -7 -38 5 -95
31 -147 5 -11 11 -30 12 -43 0 -12 5 -22 9 -22 4 0 8 -10 8 -23 0 -13 4 -27 8
-32 5 -6 17 -32 27 -60 10 -27 28 -70 39 -95 11 -25 19 -48 18 -52 -1 -5 2 -8
8 -8 6 0 9 -3 8 -7 -1 -5 19 -52 45 -107 26 -54 47 -102 47 -107 0 -4 3 -9 8
-11 4 -1 17 -21 28 -43 52 -99 113 -199 185 -306 58 -86 77 -121 72 -137 -3
-12 -8 -22 -12 -22 -3 0 -27 -17 -53 -37 -25 -21 -69 -56 -98 -78 -29 -22 -64
-50 -79 -62 -68 -56 -229 -182 -253 -197 -26 -17 -68 -15 -68 4 0 5 -6 15 -12
22 -19 19 -98 135 -98 143 0 3 -9 15 -20 27 -11 12 -26 34 -32 50 -7 15 -16
28 -20 28 -5 0 -8 7 -8 15 0 8 -4 15 -10 15 -5 0 -10 4 -10 9 0 5 -21 43 -46
85 -33 55 -56 82 -83 95 -58 30 -120 13 -157 -45 -19 -27 -24 -111 -8 -122 5
-4 34 -50 64 -102 29 -52 57 -96 62 -98 4 -2 8 -10 8 -18 0 -8 5 -14 10 -14 6
0 10 -5 10 -11 0 -9 75 -124 117 -178 6 -9 36 -50 67 -91 30 -41 59 -79 63
-85 5 -5 41 -50 82 -100 139 -171 392 -433 444 -460 37 -19 105 -11 133 16 13
12 28 37 34 56 21 61 6 90 -109 203 -178 178 -262 273 -267 305 -1 8 49 55
114 107 152 121 137 109 213 170 36 29 80 64 98 78 18 14 42 34 52 44 10 11
19 16 19 10 0 -5 5 -2 10 8 14 23 45 12 76 -26 62 -75 238 -248 366 -361 53
-47 247 -198 303 -235 28 -19 52 -37 53 -42 2 -4 7 -8 12 -8 5 0 36 -18 69
-40 33 -22 65 -40 71 -40 5 0 10 -4 10 -10 0 -5 6 -10 14 -10 7 0 18 -6 24
-12 6 -7 30 -13 55 -13 91 0 150 77 121 160 -14 41 -20 47 -118 107 -91 57
-213 139 -250 169 -6 5 -29 24 -52 41 -58 46 -85 68 -134 108 -60 48 -336 323
-390 389 -25 29 -53 63 -64 75 -59 67 -242 327 -291 413 -6 10 -14 25 -20 33
-5 8 -10 17 -10 20 0 3 -16 32 -36 65 -76 130 -239 497 -254 575 -2 8 -4 15
-5 15 -1 0 -3 7 -5 16 -8 40 -45 109 -68 124 -28 18 -94 27 -103 14z"/>
<path d="M8164 3826 c-18 -18 -38 -55 -48 -86 -10 -30 -21 -64 -26 -75 -4 -11
-13 -36 -20 -55 -14 -42 -18 -52 -61 -155 -19 -44 -38 -83 -44 -87 -5 -4 -6
-8 -1 -8 4 0 1 -11 -8 -25 -9 -13 -16 -31 -16 -39 0 -8 -3 -16 -7 -18 -5 -1
-28 -43 -53 -93 -25 -49 -48 -91 -52 -93 -5 -2 -8 -8 -8 -12 0 -17 -214 -347
-240 -370 -3 -3 -19 -23 -35 -45 -132 -177 -365 -416 -560 -575 -44 -36 -82
-67 -85 -70 -11 -12 -208 -148 -260 -180 -160 -98 -184 -123 -182 -192 2 -84
105 -138 184 -97 61 31 266 164 333 216 6 4 40 30 75 58 100 77 109 84 200
163 65 58 310 301 342 341 25 30 48 26 98 -19 25 -22 48 -40 52 -40 4 0 18
-10 30 -22 13 -13 44 -39 68 -58 57 -44 60 -46 90 -71 14 -12 41 -33 60 -48
19 -14 44 -34 55 -44 11 -10 41 -35 68 -55 26 -20 47 -41 47 -48 0 -23 -71
-104 -253 -289 -71 -71 -134 -138 -140 -150 -6 -11 -12 -37 -13 -58 -2 -33 4
-45 37 -78 33 -33 46 -39 80 -39 22 0 53 7 68 16 26 15 250 238 341 339 75 83
182 215 253 310 37 50 77 103 89 119 13 16 26 37 30 47 4 11 12 19 18 19 5 0
10 5 10 10 0 9 39 74 63 105 20 27 87 137 87 144 0 5 8 19 19 32 44 56 32 136
-27 178 -67 47 -153 19 -192 -64 -6 -11 -33 -54 -60 -95 -28 -41 -53 -83 -56
-92 -4 -10 -10 -18 -15 -18 -5 0 -9 -4 -9 -10 0 -8 -36 -63 -85 -129 -22 -29
-64 -71 -72 -71 -7 0 -99 71 -168 128 -11 9 -95 77 -187 150 -91 73 -168 139
-171 147 -4 8 10 38 31 67 20 29 55 82 78 118 24 36 48 70 53 77 6 7 11 14 11
17 0 3 25 47 55 98 30 51 55 98 55 104 0 7 3 14 8 16 9 4 83 155 124 253 16
39 35 84 43 100 28 63 44 105 40 105 -2 0 4 20 15 45 11 25 17 45 13 45 -3 0
-1 6 4 13 10 12 20 45 30 96 6 34 -25 88 -64 112 -46 29 -100 23 -139 -15z"/>
<path d="M3345 1526 c-45 -20 -67 -51 -71 -99 -5 -61 23 -102 89 -131 51 -23
341 -120 395 -132 15 -3 42 -8 60 -11 17 -3 32 -9 32 -15 0 -5 4 -6 10 -3 5 3
29 1 52 -6 24 -6 52 -13 63 -15 11 -2 45 -9 75 -15 30 -5 66 -12 80 -14 86
-11 128 -17 150 -20 31 -6 168 -17 235 -19 74 -3 85 -12 86 -78 1 -31 -1 -60
-5 -66 -3 -6 -2 -13 3 -16 5 -3 6 -21 1 -40 -4 -19 -6 -37 -3 -40 8 -8 9 -69
2 -97 -4 -15 -3 -32 1 -40 5 -7 4 -21 -1 -31 -6 -11 -6 -18 0 -18 5 0 6 -14 1
-34 -4 -19 -5 -37 -2 -40 8 -9 9 -49 1 -78 -5 -17 -4 -28 2 -28 6 0 7 -5 4
-11 -4 -6 -7 -26 -7 -45 0 -19 -4 -37 -10 -40 -16 -10 -58 -12 -58 -2 0 5 -8
4 -19 -1 -10 -6 -21 -8 -24 -5 -3 4 -37 8 -74 10 -37 2 -88 5 -113 8 -137 15
-169 19 -212 25 -25 4 -61 6 -78 3 -37 -5 -100 -61 -101 -91 -4 -69 -2 -78 35
-116 19 -19 40 -35 48 -36 7 0 22 -2 33 -5 26 -5 75 -11 150 -19 33 -4 71 -8
84 -10 122 -20 641 -27 821 -12 128 12 222 22 290 32 19 3 49 7 65 9 72 9 112
45 120 109 6 43 -20 100 -57 121 -27 17 -126 25 -146 12 -4 -2 -43 -7 -87 -11
-44 -4 -96 -9 -115 -11 -19 -2 -69 -6 -110 -9 -41 -3 -90 -7 -108 -9 -68 -5
-67 -15 -67 354 0 262 2 334 13 342 7 6 39 12 70 14 165 8 346 33 527 70 66
14 130 27 143 30 40 8 196 52 222 62 14 5 27 10 30 10 16 2 190 62 227 78 18
8 43 29 57 47 22 30 25 46 17 112 -1 6 -12 23 -25 38 -40 47 -81 45 -229 -7
-70 -25 -129 -45 -132 -45 -3 0 -30 -8 -61 -17 -31 -9 -64 -18 -73 -19 -9 -2
-16 -4 -16 -5 0 -1 -11 -4 -24 -6 -14 -2 -50 -11 -80 -18 -31 -8 -72 -17 -91
-20 -19 -3 -46 -8 -60 -11 -35 -8 -102 -18 -117 -18 -7 0 -13 -3 -13 -6 0 -3
-17 -6 -37 -6 -21 -1 -72 -4 -113 -9 -202 -22 -555 -23 -725 -1 -27 4 -63 8
-80 10 -33 3 -102 13 -150 22 -16 3 -40 7 -52 9 -139 24 -328 73 -478 124 -66
22 -124 42 -130 43 -5 1 -16 6 -22 10 -24 15 -88 16 -118 3z"/>
</g>
</svg>
